<svg xmlns="http://www.w3.org/2000/svg" width="100" height="100" viewBox="0 0 100 100" version="1.1">
	<path d="M 57 15.797 C 52.541 18.239, 48.873 25.348, 45.574 37.944 C 42.006 51.566, 37.946 55.877, 31.284 53.118 C 24.779 50.423, 22.488 39.893, 25.481 26.439 C 27.155 18.915, 27.152 18.584, 25.378 17.287 C 22.642 15.287, 20.701 16.089, 18.780 20.016 C 16.631 24.406, 14.766 37.105, 15.566 41.899 C 18.132 57.289, 25.835 64.359, 38.227 62.696 C 46.400 61.600, 49.874 56.679, 54.928 39.038 C 58.418 26.858, 60.431 23.626, 64.803 23.190 C 68.881 22.783, 71.588 24.330, 73.709 28.280 C 76.225 32.966, 75.975 46.658, 73.235 54.238 C 71.230 59.783, 71.221 60.051, 72.962 62.202 C 75.723 65.611, 79.342 63.511, 81.379 57.318 C 86.967 40.333, 84.568 23.497, 75.616 16.872 C 71.284 13.666, 61.881 13.123, 57 15.797 M 20.200 72.200 C 18.242 74.158, 18.813 75.680, 22 77 C 25.865 78.601, 25.837 80, 21.941 80 C 20.156 80, 19.139 80.417, 19.500 81 C 20.426 82.498, 24.585 82.204, 25.964 80.544 C 27.451 78.751, 26.565 77.165, 23.403 75.963 C 20.262 74.769, 20.320 73, 23.500 73 C 24.875 73, 26 72.550, 26 72 C 26 70.599, 21.651 70.749, 20.200 72.200 M 78 72.629 C 78 74.055, 77.370 74.635, 75.881 74.579 C 74.716 74.536, 73.255 75.287, 72.636 76.250 C 70.992 78.805, 73.036 81.500, 76.615 81.498 C 79.308 81.497, 79.521 81.205, 79.814 77.113 C 79.987 74.701, 79.649 72.249, 79.064 71.664 C 78.312 70.912, 78 71.195, 78 72.629 M 28.373 77.500 C 28.493 81.284, 28.675 81.509, 31.750 81.663 C 34.891 81.821, 35 81.694, 35 77.913 C 35 75.761, 34.550 74, 34 74 C 33.450 74, 33 75.350, 33 77 C 33 79.301, 32.549 80, 31.063 80 C 29.635 80, 29.011 79.146, 28.686 76.750 C 28.330 74.125, 28.270 74.269, 28.373 77.500 M 37 78.209 C 37 80.560, 37.398 81.872, 38 81.500 C 38.550 81.160, 39 79.784, 39 78.441 C 39 76.938, 39.576 76, 40.500 76 C 41.500 76, 42 77, 42 79 C 42 80.650, 42.477 82, 43.060 82 C 43.674 82, 43.990 80.421, 43.810 78.250 C 43.523 74.774, 43.263 74.493, 40.250 74.400 C 37.121 74.304, 37 74.445, 37 78.209 M 46 76 C 44.608 78.600, 46.328 82, 49.035 82 C 52.018 82, 51.383 83.815, 48.250 84.243 C 45.841 84.573, 45.734 84.725, 47.386 85.469 C 50.635 86.932, 52.471 84.790, 52.802 79.147 C 53.103 74.022, 53.092 74, 50.087 74 C 48.094 74, 46.707 74.678, 46 76 M 55.032 75.939 C 52.539 80.598, 58.589 84.223, 61.393 79.750 C 62.189 78.480, 62.189 77.520, 61.393 76.250 C 59.773 73.666, 56.339 73.498, 55.032 75.939 M 64.032 75.939 C 61.539 80.598, 67.589 84.223, 70.393 79.750 C 71.189 78.480, 71.189 77.520, 70.393 76.250 C 68.773 73.666, 65.339 73.498, 64.032 75.939 M 47 78 C 47 79.333, 47.667 80, 49 80 C 50.333 80, 51 79.333, 51 78 C 51 76.667, 50.333 76, 49 76 C 47.667 76, 47 76.667, 47 78 M 56 78 C 56 79.333, 56.667 80, 58 80 C 59.333 80, 60 79.333, 60 78 C 60 76.667, 59.333 76, 58 76 C 56.667 76, 56 76.667, 56 78 M 65 78 C 65 79.333, 65.667 80, 67 80 C 68.333 80, 69 79.333, 69 78 C 69 76.667, 68.333 76, 67 76 C 65.667 76, 65 76.667, 65 78 M 74 78 C 74 79.333, 74.667 80, 76 80 C 77.333 80, 78 79.333, 78 78 C 78 76.667, 77.333 76, 76 76 C 74.667 76, 74 76.667, 74 78" stroke="none" fill="black" fill-rule="evenodd"/>
</svg>